HIERARCHY
ROOT Hips
{
	OFFSET 0.00 86.18 0.00
	CHANNELS 6 Xposition Yposition Zposition Yrotation Xrotation Zrotation
	JOINT RightUpLeg
	{
		OFFSET -9.25 0.00 0.00
		CHANNELS 6 Xposition Yposition Zposition Yrotation Xrotation Zrotation
		JOINT RightLeg
		{
			OFFSET 0.00 -42.00 0.00
			CHANNELS 6 Xposition Yposition Zposition Yrotation Xrotation Zrotation
			JOINT RightFoot
			{
				OFFSET 0.00 -42.00 0.00
				CHANNELS 6 Xposition Yposition Zposition Yrotation Xrotation Zrotation
				End Site
				{
					OFFSET 0 -1.14 11.36
				}
			}
		}
	}
	JOINT LeftUpLeg
	{
		OFFSET 9.25 0.00 0.00
		CHANNELS 6 Xposition Yposition Zposition Yrotation Xrotation Zrotation
		JOINT LeftLeg
		{
			OFFSET 0.00 -42.00 0.00
			CHANNELS 6 Xposition Yposition Zposition Yrotation Xrotation Zrotation
			JOINT LeftFoot
			{
				OFFSET 0.00 -42.00 0.00
				CHANNELS 6 Xposition Yposition Zposition Yrotation Xrotation Zrotation
				End Site
				{
					OFFSET 0 -1.14 11.36
				}
			}
		}
	}
	JOINT Spine
	{
		OFFSET 0.00 10.46 0.00
		CHANNELS 6 Xposition Yposition Zposition Yrotation Xrotation Zrotation
		JOINT Spine1
		{
			OFFSET 0.00 9.75 0.00
			CHANNELS 6 Xposition Yposition Zposition Yrotation Xrotation Zrotation
			JOINT Spine2
			{
				OFFSET 0.00 10.15 0.00
				CHANNELS 6 Xposition Yposition Zposition Yrotation Xrotation Zrotation
				JOINT Spine3
				{
					OFFSET 0.00 9.75 0.00
					CHANNELS 6 Xposition Yposition Zposition Yrotation Xrotation Zrotation
			 		JOINT Neck
					{
						OFFSET 0.00 10.42 0.00
						CHANNELS 6 Xposition Yposition Zposition Yrotation Xrotation Zrotation
						JOINT Head
						{
							OFFSET 0.00 9.50 0.00
							CHANNELS 6 Xposition Yposition Zposition Yrotation Xrotation Zrotation
							End Site
							{
								OFFSET 0 16.00 0
							}
						}    
					} 
					JOINT RightShoulder
	 					{
						OFFSET -3.20 6.94 0.00
						CHANNELS 6 Xposition Yposition Zposition Yrotation Xrotation Zrotation
						JOINT RightArm
						{
							OFFSET -16.00 0.00 0.00
							CHANNELS 6 Xposition Yposition Zposition Yrotation Xrotation Zrotation
							JOINT RightForeArm
							{
								OFFSET -26.50 0.00 0.00
								CHANNELS 6 Xposition Yposition Zposition Yrotation Xrotation Zrotation
								JOINT RightHand
								{
									OFFSET -26.00 0.00 0.00
									CHANNELS 6 Xposition Yposition Zposition Yrotation Xrotation Zrotation
									End Site
									{
										OFFSET -17.50 0 0
									}
								}
							}
						}	
					}
					JOINT LeftShoulder
					{
						OFFSET 3.20 6.94 0.00
						CHANNELS 6 Xposition Yposition Zposition Yrotation Xrotation Zrotation
						JOINT LeftArm
						{
							OFFSET 16.00 0.00 0.00
							CHANNELS 6 Xposition Yposition Zposition Yrotation Xrotation Zrotation
							JOINT LeftForeArm
							{
								OFFSET 26.50 0.00 0.00
								CHANNELS 6 Xposition Yposition Zposition Yrotation Xrotation Zrotation
								JOINT LeftHand
								{
									OFFSET 26.00 0.00 0.00
									CHANNELS 6 Xposition Yposition Zposition Yrotation Xrotation Zrotation
									End Site
									{
										OFFSET 17.50 0 0
									}
								}
							}
						}
					}     			
				}
			}
		} 
	} 
}
MOTION
Frames: 6
Frame Time: 0.010
236.12 76.06 131.41 -7.61 -1.30 18.04 -9.10 0.02 0.02 19.10 -49.71 -48.40 0.32 -42.21 -0.35 -7.62 69.66 1.10 -0.12 -41.65 0.61 4.68 -14.90 -3.42 9.27 -0.10 -0.05 4.50 -12.95 15.87 0.02 -42.07 0.09 23.22 42.00 21.21 -0.01 -41.92 -0.07 9.51 -1.08 4.57 -0.22 10.43 -0.13 -23.29 25.73 5.12 -0.58 9.58 -0.04 -5.65 7.50 2.15 -0.00 10.18 0.15 -8.31 12.30 3.03 -0.13 9.75 0.11 2.48 -2.30 -1.48 -0.36 10.47 0.27 54.45 -0.99 -22.37 0.00 9.41 -0.34 33.12 4.11 -24.88 -3.35 6.94 0.13 -2.34 9.87 -12.73 -16.01 -0.00 0.04 -6.00 -17.61 72.80 -26.45 -0.05 0.03 84.61 -11.45 -26.92 -26.02 0.01 0.08 45.76 -67.17 4.55 3.07 6.96 0.14 -0.41 -1.15 -8.04 15.86 0.03 -0.06 -15.88 -11.62 -16.02 26.52 -0.00 -0.11 -58.89 19.02 14.99 25.89 -0.16 -0.05 -9.50 20.31 -2.17 
237.47 75.02 131.67 -7.68 -1.89 17.67 -9.12 0.00 0.00 21.84 -48.44 -51.84 0.27 -42.16 -0.36 -11.92 71.14 -0.89 -0.10 -41.67 0.57 6.63 -14.96 -3.01 9.21 -0.14 0.00 5.25 -12.32 17.49 -0.01 -42.06 0.16 23.09 40.15 21.10 0.05 -41.98 -0.05 9.02 -0.32 4.60 -0.23 10.43 -0.15 -23.35 26.01 4.79 -0.64 9.58 -0.11 -5.66 7.57 2.08 -0.04 10.19 0.16 -8.34 12.39 2.91 -0.17 9.76 0.11 2.49 -2.30 -1.47 -0.44 10.49 0.28 54.42 -1.00 -22.29 0.00 9.40 -0.38 33.18 3.89 -24.91 -3.40 6.95 0.14 -2.18 9.88 -12.40 -15.99 -0.02 0.01 -6.28 -16.91 73.26 -26.45 -0.06 -0.01 85.55 -10.92 -26.05 -26.02 0.01 0.07 45.87 -66.91 3.34 3.03 6.97 0.14 0.04 -1.59 -7.97 15.85 0.02 -0.07 -13.67 -10.53 -17.40 26.52 -0.04 -0.12 -57.41 19.13 15.07 25.90 -0.17 -0.05 -8.91 20.05 -1.83 
238.80 74.05 131.80 -7.27 -2.38 16.98 -9.17 0.13 -0.01 22.37 -47.94 -53.21 0.15 -42.13 -0.25 -9.51 71.85 2.03 0.07 -41.69 0.49 5.31 -14.72 -1.65 9.20 -0.13 0.03 5.32 -12.35 19.21 -0.02 -42.05 0.15 23.09 38.58 21.21 0.09 -42.03 -0.04 8.79 1.07 4.51 -0.24 10.43 -0.17 -23.40 26.22 4.74 -0.66 9.60 -0.15 -5.66 7.63 2.08 -0.07 10.19 0.16 -8.33 12.46 2.91 -0.20 9.76 0.11 2.48 -2.31 -1.46 -0.52 10.51 0.29 54.17 -1.11 -22.30 0.00 9.39 -0.42 33.28 3.40 -25.02 -3.44 6.96 0.17 -2.39 9.69 -11.94 -15.99 -0.01 0.03 -6.69 -16.14 73.73 -26.47 -0.05 -0.03 86.54 -10.27 -24.57 -26.00 -0.00 0.07 46.44 -66.87 1.30 2.99 6.98 0.14 0.37 -2.17 -7.90 15.82 0.03 -0.06 -11.30 -9.03 -18.80 26.49 -0.07 -0.10 -56.15 18.85 15.01 25.91 -0.16 -0.04 -8.60 19.93 -1.43 
240.19 73.15 131.94 -6.73 -2.84 16.09 -9.19 0.16 -0.05 22.66 -47.59 -54.41 0.11 -42.09 -0.22 -2.79 72.29 8.98 0.06 -41.72 0.41 3.52 -14.42 -0.75 9.22 -0.09 0.03 4.88 -12.61 20.91 0.00 -42.01 0.11 23.56 37.08 21.49 0.10 -42.03 -0.05 9.08 3.43 4.67 -0.27 10.43 -0.18 -23.34 26.46 4.77 -0.68 9.60 -0.16 -5.64 7.69 2.09 -0.10 10.19 0.17 -8.27 12.53 2.93 -0.21 9.76 0.12 2.48 -2.33 -1.46 -0.58 10.52 0.30 53.88 -1.27 -22.34 -0.00 9.39 -0.45 33.47 2.67 -25.18 -3.47 6.98 0.20 -2.55 9.38 -11.32 -16.02 0.01 0.06 -7.18 -15.12 74.12 -26.48 -0.01 -0.02 87.66 -9.73 -22.98 -25.98 -0.00 0.08 46.99 -67.15 -0.70 2.97 6.98 0.15 0.73 -2.81 -7.62 15.80 0.04 -0.05 -8.94 -7.37 -20.37 26.45 -0.05 -0.08 -55.23 17.94 14.78 25.93 -0.14 -0.04 -8.46 20.06 -0.92 
241.66 72.32 132.13 -6.28 -3.25 15.27 -9.21 0.16 -0.08 23.17 -47.08 -55.62 0.06 -42.09 -0.22 3.18 72.43 15.21 -0.01 -41.76 0.35 1.84 -14.16 0.17 9.23 -0.06 0.00 4.30 -13.02 22.48 0.02 -41.96 0.04 24.34 35.85 21.79 0.07 -42.02 -0.05 10.08 6.42 4.87 -0.27 10.43 -0.17 -23.11 26.74 4.69 -0.70 9.59 -0.15 -5.57 7.74 2.07 -0.12 10.20 0.19 -8.16 12.58 2.90 -0.22 9.76 0.14 2.48 -2.34 -1.44 -0.62 10.53 0.33 53.57 -1.44 -22.37 -0.01 9.38 -0.46 33.75 1.74 -25.37 -3.47 6.98 0.22 -2.54 9.18 -10.73 -16.05 0.01 0.07 -7.60 -14.19 74.50 -26.48 0.01 0.01 88.73 -9.49 -21.83 -25.98 0.01 0.08 46.46 -67.41 -1.23 2.97 6.99 0.18 1.11 -3.37 -7.22 15.79 0.04 -0.04 -6.60 -6.04 -21.90 26.42 -0.02 -0.06 -54.69 16.82 14.17 25.93 -0.11 -0.04 -8.31 20.03 -0.40 
243.24 71.53 132.39 -5.87 -3.68 14.57 -9.22 0.15 -0.09 23.71 -46.32 -56.83 0.07 -42.08 -0.19 4.33 72.67 16.53 -0.03 -41.78 0.30 1.62 -13.87 1.45 9.23 -0.04 0.04 3.94 -13.43 23.84 0.05 -41.92 0.06 24.89 34.87 21.85 -0.01 -42.01 -0.03 11.68 9.70 4.88 -0.27 10.43 -0.15 -22.72 27.01 4.62 -0.74 9.56 -0.12 -5.46 7.79 2.05 -0.13 10.20 0.21 -8.00 12.60 2.87 -0.22 9.76 0.17 2.48 -2.36 -1.43 -0.63 10.54 0.38 53.22 -1.57 -22.42 -0.01 9.37 -0.46 33.98 0.93 -25.56 -3.46 6.97 0.24 -2.57 9.24 -10.33 -16.06 -0.01 0.08 -7.84 -13.53 74.81 -26.48 0.00 0.04 89.65 -9.31 -21.36 -25.99 0.03 0.08 45.16 -67.29 -0.62 2.98 6.98 0.21 1.35 -3.84 -6.76 15.76 0.02 -0.04 -4.17 -5.11 -23.50 26.41 -0.02 -0.06 -54.44 15.96 13.38 25.94 -0.09 -0.06 -8.02 19.59 0.13 
